<svg xmlns="http://www.w3.org/2000/svg" xml:space="preserve" width="800" height="800" viewBox="0 0 64 64"><path d="M32.496 46.359c1.693 1.17 4.348 2.322 7.042 2.322.318 0 .635-.016.951-.05 1.672-.18 3.372-.857 4.554-1.817.018-.015 1.783-1.486 1.803-2.97.021-1.655-1.485-3.3-3.01-4.823-2.382-2.515-3.981-3.484-6.623-2.21-.06.029-.117.064-.171.105-.509 0-2.266-1.029-3.738-3.244a19.556 19.556 0 0 1-1.012-1.703 19.422 19.422 0 0 1-.838-1.797c-1.043-2.585-.834-4.523-.565-4.918a1.03 1.03 0 0 0 .18-.081c2.55-1.465 2.648-3.333 1.917-6.69-.402-2.144-.91-4.315-2.288-5.231-1.034-.686-2.86-.366-3.475-.184-1.434.425-2.99 1.472-4.06 2.733-1.964 2.304-2.65 5.583-2.636 7.881.018 3.714 1.364 8.422 3.599 12.596 2.184 4.2 5.313 7.969 8.37 10.08zm-7.811-29.262c.822-.967 2.04-1.796 3.105-2.112.36-.106.81-.155 1.178-.155.289 0 .525.03.624.088.789.525 1.237 2.915 1.434 3.963.694 3.186.347 3.79-.854 4.5-.343.118-.758.384-1.067.972-.729 1.389-.53 4.028.494 6.567.261.648.572 1.315.925 1.984.356.671.732 1.304 1.115 1.877 1.517 2.281 3.585 3.935 5.144 4.116.656.078 1.113-.117 1.404-.335 1.282-.603 1.943-.546 4.216 1.854.735.734 2.455 2.453 2.443 3.398-.019.26-.554 1.027-1.07 1.452-.862.7-2.236 1.24-3.5 1.377-2.46.263-5.119-.875-6.643-1.93-2.803-1.936-5.694-5.436-7.735-9.362l-.005-.012c-2.091-3.901-3.35-8.262-3.366-11.667-.01-1.852.548-4.685 2.158-6.575z"/><path d="M59.176 10.936h-2.703V7.752A6.759 6.759 0 0 0 49.722 1H12.476a6.759 6.759 0 0 0-6.751 6.752v5.708h-.232c-2.197 0-3.984 1.786-3.984 3.98s1.787 3.982 3.984 3.982h.232v6.594h-.471a3.985 3.985 0 0 0-3.98 3.982 3.987 3.987 0 0 0 3.98 3.985h.47v6.969h-.477c-2.195 0-3.981 1.786-3.981 3.981s1.786 3.981 3.981 3.981h.478v5.334A6.759 6.759 0 0 0 12.475 63h37.247a6.759 6.759 0 0 0 6.75-6.752v-1.963h2.704a3.561 3.561 0 0 0 3.558-3.556V14.491a3.561 3.561 0 0 0-3.558-3.555zm-2.703 18.152h4.261v6.358h-4.261v-6.358zm0-2V21.2h4.261v5.887h-4.261zm0 10.358h4.261v6.355h-4.261v-6.355zm2.703-24.51c.86 0 1.558.697 1.558 1.555v4.71h-4.261v-6.265h2.703zM12.476 3h37.246c2.276 0 4.18 1.61 4.64 3.752H7.835A4.756 4.756 0 0 1 12.475 3zM3.509 17.44c0-1.092.89-1.98 1.984-1.98h2.94c1.093 0 1.982.888 1.982 1.98s-.889 1.982-1.981 1.982h-2.94a1.985 1.985 0 0 1-1.985-1.981zm-.236 14.558c0-1.093.89-1.981 1.98-1.981h2.941a1.983 1.983 0 0 1 0 3.966h-2.94c-1.092 0-1.98-.89-1.98-1.985zm-.007 14.935c0-1.093.888-1.981 1.981-1.981h2.94c1.093 0 1.982.888 1.982 1.981s-.889 1.982-1.982 1.982h-2.94a1.983 1.983 0 0 1-1.981-1.982zm4.921 3.982c2.196 0 3.982-1.786 3.982-3.982s-1.786-3.981-3.982-3.981h-.462v-6.968h.47a3.988 3.988 0 0 0 3.98-3.986 3.986 3.986 0 0 0-3.98-3.981h-.47v-6.594h.709c2.195 0 3.981-1.787 3.981-3.982s-1.786-3.981-3.981-3.981h-.71V8.752h46.749V55.249H7.725v-4.334h.463zM49.722 61H12.476a4.756 4.756 0 0 1-4.641-3.752h46.528A4.756 4.756 0 0 1 49.721 61zm9.454-8.715h-2.703V45.8h4.261v4.928c0 .858-.699 1.556-1.558 1.556z"/></svg>